<svg xmlns="http://www.w3.org/2000/svg" x="0px" y="0px"
width="35" height="35"
viewBox="0 0 192 192"
style=" fill:#000000;"><g transform="translate(4.992,4.992) scale(0.948,0.948)"><g fill="none" fill-rule="nonzero" stroke="none" stroke-width="none" stroke-linecap="butt" stroke-linejoin="none" stroke-miterlimit="10" stroke-dasharray="" stroke-dashoffset="0" font-family="none" font-weight="none" font-size="none" text-anchor="none" style="mix-blend-mode: normal"><g id="IOS_copy 1" stroke="#000000" stroke-width="10" stroke-linejoin="round"><path d="M184.89038,192l-26.68206,-26.68206c-5.65328,4.18895 -12.62687,6.69752 -20.20059,6.69752c-18.78027,0 -34.00773,-15.22746 -34.00773,-34.00773c0,-18.78027 15.22746,-34.00773 34.00773,-34.00773c18.78027,0 34.00773,15.22746 34.00773,34.00773c0,7.57372 -2.50857,14.54731 -6.69752,20.20059l26.68206,26.68206z" fill="#616161"></path><path d="M164.01364,138.00773c0,14.40327 -11.60264,26.00591 -26.00591,26.00591c-14.40327,0 -26.00591,-11.60264 -26.00591,-26.00591c0,-14.40327 11.60264,-26.00591 26.00591,-26.00591c14.40327,0 26.00591,11.60264 26.00591,26.00591" fill="#bbdefb"></path><path d="M148.01,134.00682c-1.60036,0 -3.20073,-0.40009 -4.401,-1.60036c-3.20073,-3.20073 -8.00182,-3.20073 -11.20255,0c-2.40055,2.40055 -6.40145,2.40055 -8.40191,0c-2.40055,-2.40055 -2.40055,-6.40145 0,-8.40191c7.60173,-8.00182 20.40464,-8.00182 28.00637,0c2.40055,2.40055 2.40055,6.00136 0,8.40191c-1.20027,1.20027 -2.40055,1.60036 -4.00091,1.60036z" fill="#e3f2fd"></path><path d="M168.45928,175.5681l7.10938,-7.10938l16.43108,16.43108l-7.10938,7.10938z" fill="#37474f"></path></g><g stroke="#000000" stroke-width="10" stroke-linejoin="round"><g id="surface1 1"><path d="M16,40h160v112h-160z" fill="#4caf50"></path><path d="M92,40h8v112h-8z" fill="#a5d6a7"></path><path d="M128,96c0,17.59375 -14.40625,32 -32,32c-17.59375,0 -32,-14.40625 -32,-32c0,-17.59375 14.40625,-32 32,-32c17.59375,0 32,14.40625 32,32zM120,96c0,-13.20312 -10.79688,-24 -24,-24c-13.20312,0 -24,10.79688 -24,24c0,13.20312 10.79688,24 24,24c13.20312,0 24,-10.79688 24,-24z" fill="#a5d6a7"></path><path d="M156,76v40h20v8h-28v-56h28v8z" fill="#a5d6a7"></path><path d="M16,68h28v56h-28v-8h20v-40h-20z" fill="#a5d6a7"></path></g></g><path d="M0,192v-192h192v192z" fill="none" stroke="none" stroke-width="1" stroke-linejoin="miter"></path><g stroke="none" stroke-width="1" stroke-linejoin="miter"><g id="surface1"><path d="M16,40h160v112h-160z" fill="#4caf50"></path><path d="M92,40h8v112h-8z" fill="#a5d6a7"></path><path d="M96,64c-17.59375,0 -32,14.40625 -32,32c0,17.59375 14.40625,32 32,32c17.59375,0 32,-14.40625 32,-32c0,-17.59375 -14.40625,-32 -32,-32zM96,120c-13.20312,0 -24,-10.79688 -24,-24c0,-13.20312 10.79688,-24 24,-24c13.20312,0 24,10.79688 24,24c0,13.20312 -10.79688,24 -24,24z" fill="#a5d6a7"></path><path d="M176,76v-8h-28v56h28v-8h-20v-40z" fill="#a5d6a7"></path><path d="M16,76h20v40h-20v8h28v-56h-28z" fill="#a5d6a7"></path></g></g><path d="M96,192c-53.01934,0 -96,-42.98066 -96,-96v0c0,-53.01934 42.98066,-96 96,-96v0c53.01934,0 96,42.98066 96,96v0c0,53.01934 -42.98066,96 -96,96z" fill="none" stroke="none" stroke-width="1" stroke-linejoin="miter"></path><path d="M96,188.16c-50.89856,0 -92.16,-41.26144 -92.16,-92.16v0c0,-50.89856 41.26144,-92.16 92.16,-92.16v0c50.89856,0 92.16,41.26144 92.16,92.16v0c0,50.89856 -41.26144,92.16 -92.16,92.16z" fill="none" stroke="none" stroke-width="1" stroke-linejoin="miter"></path><path d="M96,192c-53.01934,0 -96,-42.98066 -96,-96v0c0,-53.01934 42.98066,-96 96,-96v0c53.01934,0 96,42.98066 96,96v0c0,53.01934 -42.98066,96 -96,96z" fill="none" stroke="none" stroke-width="1" stroke-linejoin="miter"></path><path d="M96,184.32c-48.77779,0 -88.32,-39.54221 -88.32,-88.32v0c0,-48.77779 39.54221,-88.32 88.32,-88.32v0c48.77779,0 88.32,39.54221 88.32,88.32v0c0,48.77779 -39.54221,88.32 -88.32,88.32z" fill="none" stroke="none" stroke-width="1" stroke-linejoin="miter"></path><path d="M96,192c-53.01934,0 -96,-42.98066 -96,-96v0c0,-53.01934 42.98066,-96 96,-96v0c53.01934,0 96,42.98066 96,96v0c0,53.01934 -42.98066,96 -96,96z" fill="none" stroke="none" stroke-width="1" stroke-linejoin="miter"></path><path d="M96,180.48c-46.65702,0 -84.48,-37.82298 -84.48,-84.48v0c0,-46.65702 37.82298,-84.48 84.48,-84.48h0c46.65702,0 84.48,37.82298 84.48,84.48v0c0,46.65702 -37.82298,84.48 -84.48,84.48z" fill="none" stroke="none" stroke-width="1" stroke-linejoin="miter"></path><path d="M96,192c-53.01934,0 -96,-42.98066 -96,-96v0c0,-53.01934 42.98066,-96 96,-96v0c53.01934,0 96,42.98066 96,96v0c0,53.01934 -42.98066,96 -96,96z" fill="none" stroke="none" stroke-width="1" stroke-linejoin="miter"></path><path d="M96,176.64c-44.53624,0 -80.64,-36.10376 -80.64,-80.64v0c0,-44.53624 36.10376,-80.64 80.64,-80.64h0c44.53624,0 80.64,36.10376 80.64,80.64v0c0,44.53624 -36.10376,80.64 -80.64,80.64z" fill="none" stroke="none" stroke-width="1" stroke-linejoin="miter"></path><path d="M96,192c-53.01934,0 -96,-42.98066 -96,-96v0c0,-53.01934 42.98066,-96 96,-96v0c53.01934,0 96,42.98066 96,96v0c0,53.01934 -42.98066,96 -96,96z" fill="none" stroke="none" stroke-width="1" stroke-linejoin="miter"></path><path d="M96,172.8c-42.41547,0 -76.8,-34.38453 -76.8,-76.8v0c0,-42.41547 34.38453,-76.8 76.8,-76.8h0c42.41547,0 76.8,34.38453 76.8,76.8v0c0,42.41547 -34.38453,76.8 -76.8,76.8z" fill="none" stroke="none" stroke-width="1" stroke-linejoin="miter"></path><path d="M96,192c-53.01934,0 -96,-42.98066 -96,-96v0c0,-53.01934 42.98066,-96 96,-96v0c53.01934,0 96,42.98066 96,96v0c0,53.01934 -42.98066,96 -96,96z" fill="none" stroke="none" stroke-width="1" stroke-linejoin="miter"></path><path d="M96,168.96c-40.2947,0 -72.96,-32.6653 -72.96,-72.96v0c0,-40.2947 32.6653,-72.96 72.96,-72.96v0c40.2947,0 72.96,32.6653 72.96,72.96v0c0,40.2947 -32.6653,72.96 -72.96,72.96z" fill="none" stroke="none" stroke-width="1" stroke-linejoin="miter"></path><path d="M96,192c-53.01934,0 -96,-42.98066 -96,-96v0c0,-53.01934 42.98066,-96 96,-96v0c53.01934,0 96,42.98066 96,96v0c0,53.01934 -42.98066,96 -96,96z" fill="none" stroke="none" stroke-width="1" stroke-linejoin="miter"></path><path d="M96,165.12c-38.17392,0 -69.12,-30.94608 -69.12,-69.12v0c0,-38.17392 30.94608,-69.12 69.12,-69.12v0c38.17392,0 69.12,30.94608 69.12,69.12v0c0,38.17392 -30.94608,69.12 -69.12,69.12z" fill="none" stroke="none" stroke-width="1" stroke-linejoin="miter"></path><path d="M96,192c-53.01934,0 -96,-42.98066 -96,-96v0c0,-53.01934 42.98066,-96 96,-96v0c53.01934,0 96,42.98066 96,96v0c0,53.01934 -42.98066,96 -96,96z" fill="none" stroke="none" stroke-width="1" stroke-linejoin="miter"></path><path d="M96,161.28c-36.05315,0 -65.28,-29.22685 -65.28,-65.28v0c0,-36.05315 29.22685,-65.28 65.28,-65.28v0c36.05315,0 65.28,29.22685 65.28,65.28v0c0,36.05315 -29.22685,65.28 -65.28,65.28z" fill="none" stroke="none" stroke-width="1" stroke-linejoin="miter"></path><path d="M96,192c-53.01934,0 -96,-42.98066 -96,-96v0c0,-53.01934 42.98066,-96 96,-96v0c53.01934,0 96,42.98066 96,96v0c0,53.01934 -42.98066,96 -96,96z" fill="none" stroke="none" stroke-width="1" stroke-linejoin="miter"></path><path d="M96,165.12c-38.17392,0 -69.12,-30.94608 -69.12,-69.12v0c0,-38.17392 30.94608,-69.12 69.12,-69.12v0c38.17392,0 69.12,30.94608 69.12,69.12v0c0,38.17392 -30.94608,69.12 -69.12,69.12z" fill="none" stroke="none" stroke-width="1" stroke-linejoin="miter"></path><path d="M96,192c-53.01934,0 -96,-42.98066 -96,-96v0c0,-53.01934 42.98066,-96 96,-96v0c53.01934,0 96,42.98066 96,96v0c0,53.01934 -42.98066,96 -96,96z" fill="none" stroke="none" stroke-width="1" stroke-linejoin="miter"></path><path d="M96,161.28c-36.05315,0 -65.28,-29.22685 -65.28,-65.28v0c0,-36.05315 29.22685,-65.28 65.28,-65.28v0c36.05315,0 65.28,29.22685 65.28,65.28v0c0,36.05315 -29.22685,65.28 -65.28,65.28z" fill="none" stroke="none" stroke-width="1" stroke-linejoin="miter"></path><path d="M96,192c-53.01934,0 -96,-42.98066 -96,-96v0c0,-53.01934 42.98066,-96 96,-96v0c53.01934,0 96,42.98066 96,96v0c0,53.01934 -42.98066,96 -96,96z" fill="none" stroke="none" stroke-width="1" stroke-linejoin="miter"></path><path d="M96,157.44c-33.93238,0 -61.44,-27.50762 -61.44,-61.44v0c0,-33.93238 27.50762,-61.44 61.44,-61.44v0c33.93238,0 61.44,27.50762 61.44,61.44v0c0,33.93238 -27.50762,61.44 -61.44,61.44z" fill="none" stroke="none" stroke-width="1" stroke-linejoin="miter"></path><path d="M96,192c-53.01934,0 -96,-42.98066 -96,-96v0c0,-53.01934 42.98066,-96 96,-96v0c53.01934,0 96,42.98066 96,96v0c0,53.01934 -42.98066,96 -96,96z" fill="none" stroke="none" stroke-width="1" stroke-linejoin="miter"></path><path d="M96,153.6c-31.8116,0 -57.6,-25.7884 -57.6,-57.6v0c0,-31.8116 25.7884,-57.6 57.6,-57.6v0c31.8116,0 57.6,25.7884 57.6,57.6v0c0,31.8116 -25.7884,57.6 -57.6,57.6z" fill="none" stroke="none" stroke-width="1" stroke-linejoin="miter"></path><path d="M96,192c-53.01934,0 -96,-42.98066 -96,-96v0c0,-53.01934 42.98066,-96 96,-96v0c53.01934,0 96,42.98066 96,96v0c0,53.01934 -42.98066,96 -96,96z" fill="none" stroke="none" stroke-width="1" stroke-linejoin="miter"></path><path d="M96,157.44c-33.93238,0 -61.44,-27.50762 -61.44,-61.44v0c0,-33.93238 27.50762,-61.44 61.44,-61.44v0c33.93238,0 61.44,27.50762 61.44,61.44v0c0,33.93238 -27.50762,61.44 -61.44,61.44z" fill="none" stroke="none" stroke-width="1" stroke-linejoin="miter"></path><path d="M96,192c-53.01934,0 -96,-42.98066 -96,-96v0c0,-53.01934 42.98066,-96 96,-96v0c53.01934,0 96,42.98066 96,96v0c0,53.01934 -42.98066,96 -96,96z" fill="none" stroke="none" stroke-width="1" stroke-linejoin="miter"></path><path d="M96,161.28c-36.05315,0 -65.28,-29.22685 -65.28,-65.28v0c0,-36.05315 29.22685,-65.28 65.28,-65.28v0c36.05315,0 65.28,29.22685 65.28,65.28v0c0,36.05315 -29.22685,65.28 -65.28,65.28z" fill="none" stroke="none" stroke-width="1" stroke-linejoin="miter"></path><path d="M96,192c-53.01934,0 -96,-42.98066 -96,-96v0c0,-53.01934 42.98066,-96 96,-96v0c53.01934,0 96,42.98066 96,96v0c0,53.01934 -42.98066,96 -96,96z" fill="none" stroke="none" stroke-width="1" stroke-linejoin="miter"></path><path d="M96,165.12c-38.17392,0 -69.12,-30.94608 -69.12,-69.12v0c0,-38.17392 30.94608,-69.12 69.12,-69.12v0c38.17392,0 69.12,30.94608 69.12,69.12v0c0,38.17392 -30.94608,69.12 -69.12,69.12z" fill="none" stroke="none" stroke-width="1" stroke-linejoin="miter"></path><path d="M96,192c-53.01934,0 -96,-42.98066 -96,-96v0c0,-53.01934 42.98066,-96 96,-96v0c53.01934,0 96,42.98066 96,96v0c0,53.01934 -42.98066,96 -96,96z" fill="none" stroke="none" stroke-width="1" stroke-linejoin="miter"></path><path d="M96,172.8c-42.41547,0 -76.8,-34.38453 -76.8,-76.8v0c0,-42.41547 34.38453,-76.8 76.8,-76.8h0c42.41547,0 76.8,34.38453 76.8,76.8v0c0,42.41547 -34.38453,76.8 -76.8,76.8z" fill="none" stroke="none" stroke-width="1" stroke-linejoin="miter"></path><path d="M96,192c-53.01934,0 -96,-42.98066 -96,-96v0c0,-53.01934 42.98066,-96 96,-96v0c53.01934,0 96,42.98066 96,96v0c0,53.01934 -42.98066,96 -96,96z" fill="none" stroke="none" stroke-width="1" stroke-linejoin="miter"></path><path d="M96,180.48c-46.65702,0 -84.48,-37.82298 -84.48,-84.48v0c0,-46.65702 37.82298,-84.48 84.48,-84.48h0c46.65702,0 84.48,37.82298 84.48,84.48v0c0,46.65702 -37.82298,84.48 -84.48,84.48z" fill="none" stroke="none" stroke-width="1" stroke-linejoin="miter"></path><path d="M96,192c-53.01934,0 -96,-42.98066 -96,-96v0c0,-53.01934 42.98066,-96 96,-96v0c53.01934,0 96,42.98066 96,96v0c0,53.01934 -42.98066,96 -96,96z" fill="none" stroke="none" stroke-width="1" stroke-linejoin="miter"></path><path d="M96,188.16c-50.89856,0 -92.16,-41.26144 -92.16,-92.16v0c0,-50.89856 41.26144,-92.16 92.16,-92.16v0c50.89856,0 92.16,41.26144 92.16,92.16v0c0,50.89856 -41.26144,92.16 -92.16,92.16z" fill="none" stroke="none" stroke-width="1" stroke-linejoin="miter"></path><path d="M0,192v-192h192v192z" fill="none" stroke="none" stroke-width="1" stroke-linejoin="miter"></path><path d="M3.84,188.16v-184.32h184.32v184.32z" fill="none" stroke="none" stroke-width="1" stroke-linejoin="miter"></path><path d="" fill="none" stroke="none" stroke-width="1" stroke-linejoin="miter"></path><path d="" fill="none" stroke="none" stroke-width="1" stroke-linejoin="miter"></path><path d="" fill="none" stroke="none" stroke-width="1" stroke-linejoin="miter"></path><path d="" fill="none" stroke="none" stroke-width="1" stroke-linejoin="miter"></path><path d="" fill="none" stroke="none" stroke-width="1" stroke-linejoin="miter"></path><path d="" fill="none" stroke="none" stroke-width="1" stroke-linejoin="miter"></path><path d="" fill="none" stroke="none" stroke-width="1" stroke-linejoin="miter"></path><path d="" fill="none" stroke="none" stroke-width="1" stroke-linejoin="miter"></path><path d="" fill="none" stroke="none" stroke-width="1" stroke-linejoin="miter"></path><path d="" fill="none" stroke="none" stroke-width="1" stroke-linejoin="miter"></path><path d="" fill="none" stroke="none" stroke-width="1" stroke-linejoin="miter"></path><path d="" fill="none" stroke="none" stroke-width="1" stroke-linejoin="miter"></path><path d="" fill="none" stroke="none" stroke-width="1" stroke-linejoin="miter"></path><path d="" fill="none" stroke="none" stroke-width="1" stroke-linejoin="miter"></path><path d="" fill="none" stroke="none" stroke-width="1" stroke-linejoin="miter"></path><path d="" fill="none" stroke="none" stroke-width="1" stroke-linejoin="miter"></path><path d="M96,192c-53.01934,0 -96,-42.98066 -96,-96v0c0,-53.01934 42.98066,-96 96,-96v0c53.01934,0 96,42.98066 96,96v0c0,53.01934 -42.98066,96 -96,96z" fill="none" stroke="none" stroke-width="1" stroke-linejoin="miter"></path><path d="M96,188.16c-50.89856,0 -92.16,-41.26144 -92.16,-92.16v0c0,-50.89856 41.26144,-92.16 92.16,-92.16v0c50.89856,0 92.16,41.26144 92.16,92.16v0c0,50.89856 -41.26144,92.16 -92.16,92.16z" fill="none" stroke="none" stroke-width="1" stroke-linejoin="miter"></path><path d="M0,192v-192h192v192z" fill="none" stroke="none" stroke-width="1" stroke-linejoin="miter"></path><path d="M3.84,188.16v-184.32h184.32v184.32z" fill="none" stroke="none" stroke-width="1" stroke-linejoin="miter"></path><g stroke="none" stroke-width="1" stroke-linejoin="miter"><g id="IOS_copy"><path d="M192,184.89038l-26.68206,-26.68206c4.18895,-5.65328 6.69752,-12.62687 6.69752,-20.20059c0,-18.78027 -15.22746,-34.00773 -34.00773,-34.00773c-18.78027,0 -34.00773,15.22746 -34.00773,34.00773c0,18.78027 15.22746,34.00773 34.00773,34.00773c7.57372,0 14.54731,-2.50857 20.20059,-6.69752l26.68206,26.68206z" fill="#616161"></path><path d="M164.01364,138.00773c0,14.40327 -11.60264,26.00591 -26.00591,26.00591c-14.40327,0 -26.00591,-11.60264 -26.00591,-26.00591c0,-14.40327 11.60264,-26.00591 26.00591,-26.00591c14.40327,0 26.00591,11.60264 26.00591,26.00591" fill="#bbdefb"></path><path d="M148.01,134.00682c-1.60036,0 -3.20073,-0.40009 -4.401,-1.60036c-3.20073,-3.20073 -8.00182,-3.20073 -11.20255,0c-2.40055,2.40055 -6.40145,2.40055 -8.40191,0c-2.40055,-2.40055 -2.40055,-6.40145 0,-8.40191c7.60173,-8.00182 20.40464,-8.00182 28.00637,0c2.40055,2.40055 2.40055,6.00136 0,8.40191c-1.20027,1.20027 -2.40055,1.60036 -4.00091,1.60036z" fill="#e3f2fd"></path><rect x="60.80278" y="-1.2566" transform="rotate(45) scale(4.00087,4.00087)" width="5.808" height="2.513" fill="#37474f"></rect></g></g><path d="" fill="none" stroke="none" stroke-width="1" stroke-linejoin="miter"></path><path d="" fill="none" stroke="none" stroke-width="1" stroke-linejoin="miter"></path><path d="" fill="none" stroke="none" stroke-width="1" stroke-linejoin="miter"></path></g></g></svg>