<svg xmlns="http://www.w3.org/2000/svg" x="0px" y="0px"
width="45" height="45"
viewBox="0 0 192 192"
style=" fill:#000000;"><g transform="translate(4.992,4.992) scale(0.948,0.948)"><g fill="none" fill-rule="nonzero" stroke="none" stroke-width="none" stroke-linecap="butt" stroke-linejoin="none" stroke-miterlimit="10" stroke-dasharray="" stroke-dashoffset="0" font-family="none" font-weight="none" font-size="none" text-anchor="none" style="mix-blend-mode: normal"><g id="IOS_copy 1" stroke="#000000" stroke-width="10" stroke-linejoin="round"><path d="M184.89038,192l-26.68206,-26.68206c-5.65328,4.18895 -12.62687,6.69752 -20.20059,6.69752c-18.78027,0 -34.00773,-15.22746 -34.00773,-34.00773c0,-18.78027 15.22746,-34.00773 34.00773,-34.00773c18.78027,0 34.00773,15.22746 34.00773,34.00773c0,7.57372 -2.50857,14.54731 -6.69752,20.20059l26.68206,26.68206z" fill="#616161"></path><path d="M164.01364,138.00773c0,14.40327 -11.60264,26.00591 -26.00591,26.00591c-14.40327,0 -26.00591,-11.60264 -26.00591,-26.00591c0,-14.40327 11.60264,-26.00591 26.00591,-26.00591c14.40327,0 26.00591,11.60264 26.00591,26.00591" fill="#bbdefb"></path><path d="M148.01,134.00682c-1.60036,0 -3.20073,-0.40009 -4.401,-1.60036c-3.20073,-3.20073 -8.00182,-3.20073 -11.20255,0c-2.40055,2.40055 -6.40145,2.40055 -8.40191,0c-2.40055,-2.40055 -2.40055,-6.40145 0,-8.40191c7.60173,-8.00182 20.40464,-8.00182 28.00637,0c2.40055,2.40055 2.40055,6.00136 0,8.40191c-1.20027,1.20027 -2.40055,1.60036 -4.00091,1.60036z" fill="#e3f2fd"></path><path d="M168.45928,175.5681l7.10938,-7.10938l16.43108,16.43108l-7.10938,7.10938z" fill="#37474f"></path></g><g stroke="#000000" stroke-width="10" stroke-linejoin="round"><g id="surface1 1"><path d="M16,40h160v112h-160z" fill="#3498db"></path><path d="M92,40h8v112h-8z" fill="#a5d6a7"></path><path d="M128,96c0,17.59375 -14.40625,32 -32,32c-17.59375,0 -32,-14.40625 -32,-32c0,-17.59375 14.40625,-32 32,-32c17.59375,0 32,14.40625 32,32zM120,96c0,-13.20312 -10.79688,-24 -24,-24c-13.20312,0 -24,10.79688 -24,24c0,13.20312 10.79688,24 24,24c13.20312,0 24,-10.79688 24,-24z" fill="#a5d6a7"></path><path d="M156,76v40h20v8h-28v-56h28v8z" fill="#a5d6a7"></path><path d="M16,68h28v56h-28v-8h20v-40h-20z" fill="#a5d6a7"></path></g></g><path d="M0,192v-192h192v192z" fill="none" stroke="none" stroke-width="1" stroke-linejoin="miter"></path><g stroke="none" stroke-width="1" stroke-linejoin="miter"><g id="surface1"><path d="M16,40h160v112h-160z" fill="#3498db"></path><path d="M92,40h8v112h-8z" fill="#a5d6a7"></path><path d="M96,64c-17.59375,0 -32,14.40625 -32,32c0,17.59375 14.40625,32 32,32c17.59375,0 32,-14.40625 32,-32c0,-17.59375 -14.40625,-32 -32,-32zM96,120c-13.20312,0 -24,-10.79688 -24,-24c0,-13.20312 10.79688,-24 24,-24c13.20312,0 24,10.79688 24,24c0,13.20312 -10.79688,24 -24,24z" fill="#a5d6a7"></path><path d="M176,76v-8h-28v56h28v-8h-20v-40z" fill="#a5d6a7"></path><path d="M16,76h20v40h-20v8h28v-56h-28z" fill="#a5d6a7"></path></g></g><g stroke="none" stroke-width="1" stroke-linejoin="miter"><g id="IOS_copy"><path d="M192,184.89038l-26.68206,-26.68206c4.18895,-5.65328 6.69752,-12.62687 6.69752,-20.20059c0,-18.78027 -15.22746,-34.00773 -34.00773,-34.00773c-18.78027,0 -34.00773,15.22746 -34.00773,34.00773c0,18.78027 15.22746,34.00773 34.00773,34.00773c7.57372,0 14.54731,-2.50857 20.20059,-6.69752l26.68206,26.68206z" fill="#616161"></path><path d="M164.01364,138.00773c0,14.40327 -11.60264,26.00591 -26.00591,26.00591c-14.40327,0 -26.00591,-11.60264 -26.00591,-26.00591c0,-14.40327 11.60264,-26.00591 26.00591,-26.00591c14.40327,0 26.00591,11.60264 26.00591,26.00591" fill="#bbdefb"></path><path d="M148.01,134.00682c-1.60036,0 -3.20073,-0.40009 -4.401,-1.60036c-3.20073,-3.20073 -8.00182,-3.20073 -11.20255,0c-2.40055,2.40055 -6.40145,2.40055 -8.40191,0c-2.40055,-2.40055 -2.40055,-6.40145 0,-8.40191c7.60173,-8.00182 20.40464,-8.00182 28.00637,0c2.40055,2.40055 2.40055,6.00136 0,8.40191c-1.20027,1.20027 -2.40055,1.60036 -4.00091,1.60036z" fill="#e3f2fd"></path><rect x="60.80278" y="-1.2566" transform="rotate(45) scale(4.00087,4.00087)" width="5.808" height="2.513" fill="#37474f"></rect></g></g><path d="" fill="none" stroke="none" stroke-width="1" stroke-linejoin="miter"></path><path d="" fill="none" stroke="none" stroke-width="1" stroke-linejoin="miter"></path><path d="" fill="none" stroke="none" stroke-width="1" stroke-linejoin="miter"></path></g></g></svg>